<svg width="132" height="129" viewBox="0 0 132 129" fill="none" xmlns="http://www.w3.org/2000/svg">
<ellipse cx="66" cy="64.5" rx="66" ry="64" fill="#ADADAD" fill-opacity="0.2"/>
<ellipse cx="66" cy="64.5" rx="47" ry="44" fill="#C5C5C5"/>
<path d="M55.184 76.5V56.556L51.044 57.528V54L57.128 51.3H59.972V76.5H55.184ZM64.2462 76.5V73.152C65.7822 71.88 67.2702 70.62 68.7102 69.372C70.1742 68.124 71.4702 66.888 72.5982 65.664C73.7502 64.44 74.6622 63.252 75.3342 62.1C76.0302 60.924 76.3782 59.784 76.3782 58.68C76.3782 57.648 76.0902 56.736 75.5142 55.944C74.9622 55.152 74.0382 54.756 72.7422 54.756C71.4222 54.756 70.4262 55.188 69.7542 56.052C69.0822 56.916 68.7462 57.96 68.7462 59.184H64.2822C64.3302 57.336 64.7382 55.8 65.5062 54.576C66.2742 53.328 67.2942 52.404 68.5662 51.804C69.8382 51.18 71.2662 50.868 72.8502 50.868C75.4182 50.868 77.4102 51.576 78.8262 52.992C80.2662 54.384 80.9862 56.196 80.9862 58.428C80.9862 59.82 80.6622 61.176 80.0142 62.496C79.3902 63.816 78.5622 65.088 77.5302 66.312C76.4982 67.536 75.3822 68.688 74.1822 69.768C72.9822 70.824 71.8182 71.808 70.6902 72.72H81.5982V76.5H64.2462Z" fill="white"/>
</svg>
