<svg width="1728" height="906" viewBox="0 0 1728 906" fill="none" xmlns="http://www.w3.org/2000/svg">
<g clip-path="url(#clip0_5_3)">
<path d="M0 0H1728V906C1624 428.688 0 1037.15 0 616.936V0Z" fill="#FFF8E9"/>
<path d="M280.309 706.427C278.358 706.177 276.426 705.902 274.504 705.519C266.199 696.724 254.524 692.024 241.983 692.428C244.889 705.313 261.849 713.126 274.046 707.489C276.557 707.961 279.1 708.341 281.672 708.59C272.214 710.058 262.743 713.826 257.848 720.863C273.306 727.911 290.685 720.066 293.591 708.826C299.145 708.604 304.722 707.861 310.253 706.607C301.395 710.944 293.448 717.262 290.652 725.467C307.707 727.002 322.506 714.401 322.034 703.163C327.487 701.148 332.801 698.64 337.912 695.67C330.334 702.608 324.305 711.038 324.029 719.375C341.028 715.444 352.098 699.315 348.926 689.119C374.933 669.45 396.745 644.223 412.617 615.454C412.794 615.041 412.824 614.591 412.699 614.191C412.575 613.79 412.305 613.468 411.942 613.286C411.579 613.104 411.15 613.075 410.736 613.205C410.322 613.335 409.954 613.615 409.703 613.991C394.053 642.426 372.486 667.337 346.751 686.702C342.346 684.106 337.271 682.745 331.975 682.74C326.678 682.735 321.324 684.085 316.386 686.673C317.941 690.181 320.659 692.916 324.1 694.435C327.541 695.954 331.503 696.168 335.346 695.041C330.834 697.56 326.171 699.721 321.402 701.503C318.321 697.237 314.115 694.008 309.207 692.141C304.299 690.273 298.862 689.832 293.442 690.863C293.826 694.78 295.491 698.312 298.171 700.895C300.851 703.477 304.391 704.96 308.227 705.108C303.348 706.106 298.441 706.696 293.553 706.874C291.985 701.692 289.071 697.176 285.103 693.782C281.136 690.387 276.255 688.235 270.955 687.542C270.149 691.542 270.63 695.567 272.323 698.984C274.016 702.402 276.825 705.02 280.309 706.427Z" fill="#69805C"/>
<path d="M317.138 61.3673C322.544 62.6794 327.919 64.04 333.346 65.6373C362.104 88.5254 396.836 103.544 430.092 107.472C412.741 77.5093 361.556 53.4858 333.108 61.4044C326.04 59.3807 318.951 57.5482 311.883 56.0009C336.1 56.3583 358.642 51.5736 366.512 37.7078C319.913 15.9742 279.24 26.8382 279.817 50.8803C265.119 49.237 250.748 48.7503 236.881 49.4263C257.361 43.1323 273.93 32.0503 275.315 14.7613C228.538 4.75329 198.303 27.2575 207.918 52.5963C194.825 55.0052 182.467 58.5714 170.999 63.2506C186.121 50.6405 195.989 34.0934 190.532 15.5361C147.967 17.7868 130.333 49.626 146.398 73.6723C91.4236 107.68 51.8077 155.746 30.7164 214.03C30.5474 214.885 30.8031 215.881 31.4342 216.825C32.0652 217.77 33.0267 218.596 34.1324 219.143C35.2381 219.69 36.4095 219.92 37.4198 219.788C38.4301 219.656 39.2074 219.172 39.6013 218.428C60.3443 160.806 99.5422 113.352 154.012 79.9195C167.728 87.4287 182.32 92.4308 196.495 94.4833C210.671 96.5357 223.993 95.5752 235.284 91.6867C228.517 83.234 219.212 76.0638 208.876 71.3378C198.539 66.6118 187.778 64.6067 178.334 65.6473C188.535 61.7475 199.406 58.7076 210.843 56.5567C222.256 67.2921 235.91 76.1408 250.431 82.213C264.951 88.2853 279.828 91.367 293.563 91.1483C289.624 82.2306 282.544 73.6826 273.454 66.8695C264.365 60.0565 253.789 55.3714 243.417 53.5625C255.73 53.2098 268.423 53.7788 281.369 55.2638C289.414 67.4678 300.568 78.7003 313.707 87.8275C326.846 96.9546 341.504 103.653 356.201 107.247C355.385 98.6029 351.107 89.4083 344.037 81.1052C336.968 72.8021 327.507 65.86 317.138 61.3673Z" fill="#8D9F83"/>
<path d="M212.758 244.207C214.929 244.663 217.086 245.141 219.259 245.718C230.514 254.879 244.337 260.6 257.764 261.654C251.27 249.29 230.932 240.059 219.24 243.93C216.408 243.203 213.564 242.557 210.724 242.032C220.547 241.74 229.785 239.303 233.233 233.29C214.715 224.944 198.007 230.286 197.801 240.451C191.865 240.024 186.041 240.081 180.4 240.621C188.828 237.583 195.756 232.589 196.635 225.246C177.83 221.866 165.146 231.944 168.585 242.493C163.226 243.752 158.145 245.487 153.404 247.677C159.773 242.064 164.081 234.88 162.206 227.125C144.887 228.856 137.147 242.655 143.228 252.538C120.291 267.937 103.331 289.006 93.7038 314.06C93.6195 314.424 93.7051 314.841 93.944 315.229C94.1829 315.618 94.558 315.95 94.9968 316.161C95.4356 316.372 95.9069 316.448 96.3194 316.374C96.7319 316.3 97.0563 316.08 97.2298 315.758C106.704 290.991 123.483 270.189 146.204 255.043C151.634 257.97 157.466 259.82 163.182 260.43C168.899 261.039 174.324 260.389 178.978 258.537C176.386 255.083 172.74 252.218 168.631 250.407C164.522 248.596 160.19 247.944 156.338 248.557C160.55 246.72 165.018 245.235 169.7 244.115C174.136 248.45 179.517 251.946 185.3 254.25C191.083 256.554 197.065 257.587 202.644 257.243C201.209 253.54 198.491 250.052 194.926 247.335C191.361 244.617 187.154 242.828 182.977 242.252C187.981 241.878 193.123 241.886 198.351 242.278C201.393 247.296 205.716 251.846 210.882 255.469C216.048 259.091 221.875 261.658 227.775 262.911C227.602 259.267 226.034 255.454 223.316 252.069C220.598 248.684 216.885 245.919 212.758 244.207Z" fill="#FFDA83"/>
<path d="M1562.34 724.232C1567.46 733.233 1578.91 736.458 1587.73 731.034C1674.78 677.533 1739.91 595.649 1770.31 500.855C1802.55 400.289 1793.13 293.212 1744.06 202.615C1694.98 112.018 1610.18 45.1262 1507.84 16.3016C1411.46 -10.8479 1306.77 -2.18674 1213.81 40.2143C1204.3 44.5519 1200.63 56.0033 1205.41 65.2964V65.2964C1210.17 74.5315 1221.47 78.1426 1230.94 73.8713C1314.61 36.1246 1408.66 28.532 1495.29 52.9323C1587.81 78.9933 1664.48 139.472 1708.85 221.383C1753.22 303.293 1761.74 400.104 1732.59 491.028C1705.32 576.075 1647.12 649.629 1569.32 698.02C1560.42 703.559 1557.15 715.117 1562.34 724.232V724.232Z" fill="#FEF6E6"/>
<path d="M1693.75 422.776C1700.44 423.295 1706.35 418.392 1706.8 411.698C1712.15 331.83 1686.8 253.396 1635.44 191.834C1581.52 127.188 1503.2 86.3016 1417.33 77.9532C1331.45 69.6047 1244.85 94.4602 1176.13 147.183C1110.87 197.252 1066.67 268.663 1051.87 347.367C1050.58 354.224 1055.5 360.607 1062.43 361.417V361.417C1069.08 362.195 1075.11 357.537 1076.35 350.959C1090.08 278.261 1130.93 212.308 1191.23 166.051C1254.78 117.292 1334.87 94.305 1414.29 102.026C1493.71 109.747 1566.14 147.56 1616.01 207.346C1663.17 263.873 1686.61 335.78 1682.11 409.095C1681.68 416.059 1686.79 422.236 1693.75 422.776V422.776Z" fill="#F9F0DC" fill-opacity="0.43"/>
<path d="M1181.2 505.752C1171.06 508.038 1164.5 518.033 1167.46 528.001C1175.25 554.272 1188.23 578.756 1205.81 600.195C1227.37 626.497 1255.28 647.53 1287.45 661.708C1319.62 675.887 1355.19 682.842 1391.51 682.05C1427.82 681.258 1463.91 672.74 1497.08 657.136C1530.25 641.533 1559.62 619.251 1582.98 591.97C1606.34 564.688 1623.08 533.116 1631.95 499.634C1640.81 466.151 1641.57 431.629 1634.16 398.669C1628.07 371.562 1616.58 346.093 1600.35 323.539C1594.44 315.321 1582.89 314.213 1574.89 320.414V320.414C1566.29 327.078 1565.12 339.542 1571.23 348.542C1583.45 366.535 1592.17 386.594 1596.94 407.849C1603.18 435.591 1602.54 464.648 1595.08 492.83C1587.62 521.012 1573.53 547.585 1553.86 570.548C1534.2 593.51 1509.48 612.265 1481.56 625.398C1453.65 638.531 1423.27 645.701 1392.7 646.367C1362.14 647.034 1332.2 641.18 1305.12 629.246C1278.05 617.312 1254.55 599.609 1236.4 577.471C1222.44 560.441 1211.92 541.127 1205.27 520.421C1201.98 510.177 1191.7 503.387 1181.2 505.752V505.752Z" fill="#98701C" fill-opacity="0.3"/>
<path d="M1490.47 244.264C1498.55 238.022 1499.95 226.251 1492.53 219.244C1471.79 199.661 1445.24 186.109 1415.46 180.095C1379.19 172.773 1340.03 177.015 1303.75 192.195C1267.47 207.376 1235.98 232.694 1213.91 264.423C1195.85 290.392 1184.88 319.534 1181.94 348.905C1180.89 359.313 1190.21 367.289 1200.59 365.954V365.954C1209.52 364.805 1216.02 357.074 1216.93 348.113C1219.31 324.568 1228.11 301.212 1242.59 280.395C1260.31 254.915 1285.6 234.584 1314.73 222.394C1343.87 210.204 1375.31 206.798 1404.43 212.678C1427.42 217.318 1448 227.548 1464.35 242.294C1471.64 248.872 1482.7 250.271 1490.47 244.264V244.264Z" fill="#F4EBD7"/>
<path d="M1524.93 459.27C1533.16 461.017 1541.1 455.172 1541.15 446.76C1541.4 408.139 1530 369.031 1508.47 335.367C1487.14 302.022 1457.17 276.07 1423.12 261.143C1415.14 257.645 1406.32 262.831 1404.65 271.383V271.383C1403.26 278.535 1407.44 285.537 1414.13 288.42C1442.87 300.801 1468.17 322.589 1486.14 350.665C1504.22 378.94 1513.73 411.824 1513.37 444.257C1513.3 451.358 1517.98 457.794 1524.93 459.27V459.27Z" fill="#FFF0D0"/>
<path d="M1371.15 31.9083C1394.55 11.8318 1398.18 -23.4706 1376.13 -45.019C1326.97 -93.0655 1266.7 -129.003 1198.73 -150.508C1112.63 -177.748 1016.99 -180.936 920.772 -159.773C824.554 -138.61 730.913 -93.7885 648.627 -29.5115C580.903 23.3915 522.697 88.0476 477.577 160.19C462.09 184.951 474.2 216.938 501.444 227.462V227.462C524.643 236.423 550.69 226.419 563.843 205.313C600.64 146.265 648.2 93.3503 703.579 50.0907C770.558 -2.22972 846.781 -38.7136 925.101 -55.9401C1003.42 -73.1667 1081.27 -70.5716 1151.36 -48.3983C1201.79 -32.443 1247.01 -6.72636 1284.92 27.3184C1309.19 49.1108 1346.4 53.1492 1371.15 31.9083V31.9083Z" fill="#98701C"/>
<path d="M467.192 594.827C442.891 604.197 431.336 632.301 445.174 654.366C479.176 708.579 527.07 753.841 583.757 784.699C654.616 823.272 734.722 836.893 810.11 823.189C885.498 809.485 951.388 769.325 996.295 709.709C1032.95 661.045 1053.73 601.937 1056.63 539.522C1057.75 515.456 1037.34 496.903 1013.25 496.83V496.83C986.058 496.748 965.08 520.163 961.492 547.115C956.492 584.673 942.314 619.953 919.846 649.78C887.53 692.682 840.113 721.583 785.861 731.445C731.609 741.307 673.962 731.505 622.969 703.747C584.505 682.808 551.668 652.656 527.531 616.577C514.259 596.738 489.463 586.24 467.192 594.827V594.827Z" fill="#C6AF84" fill-opacity="0.42"/>
</g>
<defs>
<clipPath id="clip0_5_3">
<rect width="1728" height="906" fill="white"/>
</clipPath>
</defs>
</svg>
