<svg width="1728" height="2753" viewBox="0 0 1728 2753" fill="none" xmlns="http://www.w3.org/2000/svg">
<path d="M-341.95 365.316C116.192 45.9313 1628.61 -261.064 2061.11 359.338C2493.62 979.741 1682.42 2292.61 1224.28 2611.99C766.136 2931.38 44.1266 2687.36 -388.375 2066.95C-820.877 1446.55 -800.092 684.701 -341.95 365.316Z" fill="white"/>
<path d="M-336.231 373.519C-109.151 215.215 381.536 58.9187 869.994 19.8752C1114.03 0.369056 1356.77 10.2017 1565.13 63.3166C1773.53 116.44 1946.63 212.606 2052.91 365.057C2159.19 517.508 2189.54 713.191 2167.3 927.101C2145.06 1140.98 2070.32 1372.13 1967.61 1594.35C1762.02 2039.15 1445.64 2445.49 1218.56 2603.79C992.704 2761.24 701.15 2780.3 411.538 2682.42C121.93 2584.54 -165.018 2369.86 -380.172 2061.23C-595.326 1752.61 -697.495 1409.11 -689.158 1103.53C-680.82 797.933 -562.086 530.97 -336.231 373.519Z" stroke="#98701C" stroke-opacity="0.11" stroke-width="20"/>
</svg>
