<svg width="22" height="20" viewBox="0 0 22 20" fill="none" xmlns="http://www.w3.org/2000/svg">
<path d="M0.023375 10.4175C0.26675 15.7369 5.08956 20 11 20C16.9104 20 21.7332 15.7369 21.9766 10.4175C21.9911 10.384 21.999 10.3485 22 10.3125C22 10.29 21.9911 10.2706 21.9862 10.25C21.9883 10.1663 22 10.0844 22 10C22 4.48625 17.0651 0 11 0C4.93488 0 0 4.48625 0 10C0 10.0844 0.0116875 10.1663 0.01375 10.25C0.0089375 10.2706 0 10.29 0 10.3125C0 10.35 0.0103125 10.3844 0.023375 10.4175ZM17.1332 14.2138C16.199 13.8612 15.2282 13.5951 14.2354 13.4194C14.344 12.5113 14.4079 11.5681 14.4279 10.6256H17.8516C17.7891 11.9094 17.5381 13.1213 17.1332 14.2138ZM18.5384 10.625H21.2774C21.1562 12.3267 20.5229 13.9653 19.4466 15.3619C18.912 15.0198 18.347 14.7188 17.7574 14.4619C18.2009 13.2937 18.4738 11.9975 18.5384 10.625ZM8.51744 13.9287C9.33864 13.811 10.1686 13.7512 11 13.75C11.8415 13.75 12.6727 13.8137 13.4819 13.9287C13.0048 17.2631 11.9625 19.375 11 19.375C10.0375 19.375 8.99525 17.2631 8.51744 13.9287ZM9.56175 19.165C7.67044 18.6138 6.07063 16.9956 5.10538 14.8C5.98952 14.4638 6.90848 14.209 7.8485 14.0394C8.16406 16.2244 8.74088 18.1281 9.56175 19.165ZM8.43838 6.69312C9.28589 6.81312 10.1423 6.87393 11 6.875C11.8577 6.87393 12.7141 6.81312 13.5616 6.69312C13.6799 7.70562 13.75 8.81063 13.75 10H8.25C8.25 8.81063 8.32013 7.70562 8.43838 6.69312ZM13.7397 10.625C13.7233 11.5209 13.6636 12.4157 13.5609 13.3069C12.7137 13.1868 11.8575 13.126 11 13.125C10.1423 13.126 9.28589 13.1869 8.43838 13.3069C8.33537 12.4157 8.27573 11.5209 8.25962 10.625H13.7397ZM14.1522 14.0394C15.1174 14.2156 16.038 14.4719 16.8953 14.8C15.9301 16.9956 14.3302 18.6138 12.4389 19.165C13.2591 18.1281 13.8359 16.2244 14.1522 14.0394ZM14.4375 10C14.4375 8.8525 14.3674 7.69 14.2354 6.58125C15.2529 6.39875 16.2264 6.13125 17.1332 5.78687C17.6034 7.055 17.875 8.48375 17.875 10H14.4375ZM14.1522 5.96062C13.8359 3.77562 13.2598 1.87125 12.4382 0.835C14.3296 1.38625 15.9294 3.00437 16.8946 5.2C16.0108 5.53646 15.0921 5.79128 14.1522 5.96062ZM13.4826 6.07125C12.6727 6.18625 11.8415 6.25 11 6.25C10.1585 6.25 9.32731 6.18625 8.51744 6.07125C8.99525 2.73687 10.0375 0.625 11 0.625C11.9625 0.625 13.0048 2.73687 13.4826 6.07125ZM7.84781 5.96062C6.90782 5.7909 5.98886 5.53609 5.10469 5.2C6.06994 3.00437 7.66975 1.38625 9.56106 0.835C8.74087 1.87188 8.16406 3.77562 7.84781 5.96062ZM7.76462 6.58125C7.63034 7.71675 7.56287 8.85796 7.5625 10H4.125C4.125 8.48375 4.39656 7.055 4.86681 5.78625C5.77362 6.13125 6.74712 6.39812 7.76462 6.58125ZM7.57212 10.625C7.59206 11.5675 7.656 12.5106 7.76462 13.4194C6.74712 13.6019 5.77362 13.8694 4.86681 14.2138C4.46187 13.1213 4.21094 11.9094 4.14838 10.625H7.57212ZM4.24188 14.4619C3.65271 14.719 3.08795 15.0201 2.55338 15.3619C1.47701 13.9653 0.84366 12.3267 0.722562 10.625H3.46156C3.52619 11.9975 3.79912 13.2937 4.24188 14.4619ZM2.96519 15.8625C3.44634 15.5544 3.95372 15.2817 4.4825 15.0469C5.17275 16.6 6.16619 17.8894 7.36038 18.7612C5.63757 18.1679 4.12025 17.1672 2.96519 15.8625ZM14.6396 18.7606C15.8345 17.8894 16.8272 16.5994 17.5175 15.0462C18.0606 15.2862 18.5639 15.5625 19.0348 15.8619C17.8801 17.167 16.3627 18.1678 14.6396 18.7606ZM18.5625 10C18.5625 8.39563 18.2682 6.88312 17.7581 5.53813C18.3631 5.27437 18.9255 4.97125 19.4473 4.63812C20.6616 6.20816 21.313 8.08074 21.3125 10H18.5625ZM19.0355 4.1375C18.5646 4.43687 18.0613 4.71313 17.5182 4.95312C16.8279 3.4 15.8345 2.11 14.6403 1.23875C16.3629 1.83238 17.8802 2.83303 19.0355 4.1375ZM7.36038 1.23937C6.1655 2.11063 5.17275 3.40063 4.4825 4.95375C3.95376 4.71861 3.4464 4.44567 2.96519 4.1375C4.12011 2.83277 5.63749 1.83224 7.36038 1.23937ZM2.55338 4.63812C3.08786 4.98007 3.65263 5.2811 4.24188 5.53813C3.70419 6.97475 3.43238 8.4825 3.4375 10H0.6875C0.6875 8.00625 1.38119 6.15938 2.55338 4.63812Z" fill="#7A7A7A"/>
</svg>
