<svg width="135" height="79" viewBox="0 0 135 79" fill="none" xmlns="http://www.w3.org/2000/svg">
<path d="M62.2025 25.088C62.7546 27.9958 64.825 32.2808 65.7912 34.0598H69.2418C67.88 30.4895 66.2512 28.7227 65.193 24.4438C64.1348 20.165 65.3004 16.9903 65.8832 15.9321C75.0225 20.5699 82.2978 13.9997 84.793 10.135C74.9654 4.02492 67.6315 9.3988 65.193 12.8495C64.2728 2.28576 56.0679 0.595689 52.0805 1.07112C51.3811 10.9355 58.7518 14.2911 62.5246 14.7359C61.4663 17.9565 61.5123 21.4532 62.2025 25.088Z" fill="#2C7233" stroke="#2C7233" stroke-width="0.0920186"/>
<path d="M79.7778 33.9219C79.9619 48.1387 56.6812 52.0955 54.4267 33.9219C54.4267 33.9219 62.3498 35.619 67.4933 35.5782C72.334 35.5398 79.7778 33.9219 79.7778 33.9219Z" fill="#2C7233"/>
<path d="M82.6963 31.5011C82.9675 33.6866 82.7713 35.9048 82.1209 38.0088C81.4704 40.1129 80.3804 42.0547 78.9232 43.7059C77.4659 45.3571 75.6745 46.68 73.6677 47.5869C71.6608 48.4938 69.4842 48.9642 67.2819 48.9668C65.0796 48.9694 62.9019 48.5042 60.8929 47.602C58.8838 46.6998 57.0894 45.3812 55.6282 43.7334C54.167 42.0857 53.0725 40.1464 52.4171 38.0439C51.7616 35.9414 51.5602 33.7237 51.8262 31.5375L54.5677 31.871C54.349 33.669 54.5146 35.4929 55.0537 37.222C55.5927 38.9511 56.4928 40.546 57.6945 41.9011C58.8962 43.2562 60.372 44.3407 62.0242 45.0826C63.6765 45.8246 65.4674 46.2072 67.2786 46.205C69.0898 46.2029 70.8799 45.8161 72.5303 45.0702C74.1808 44.3244 75.6541 43.2364 76.8525 41.8785C78.051 40.5205 78.9474 38.9235 79.4823 37.1931C80.0173 35.4627 80.1786 33.6385 79.9556 31.8411L82.6963 31.5011Z" fill="white"/>
<path d="M49.1358 43.8599L56.7274 51.4974L51.4363 55.3622L45.2711 49.335L49.1358 43.8599Z" fill="#2C7233"/>
<path d="M47.0035 31.4551L46.6974 38.9368L40.5877 38.1086L40.5876 31.4551L47.0035 31.4551Z" fill="#2C7233"/>
<path d="M87.5533 38.6607L87.783 31.5567L93.9224 31.5567L93.9227 38.1548L87.5533 38.6607Z" fill="#2C7233"/>
<path d="M77.5193 51.2509L85.2687 43.7736L89.0545 49.1215L82.9364 55.1966L77.5193 51.2509Z" fill="#2C7233"/>
<path d="M61.8427 53.2851L72.6109 53.3853L71.5617 59.853L62.9399 59.8964L61.8427 53.2851Z" fill="#2C7233"/>
<path d="M88.3382 31.515C88.6093 34.4561 88.2632 37.4214 87.322 40.221C86.3807 43.0205 84.8652 45.5927 82.8724 47.7726C80.8796 49.9526 78.4535 51.6923 75.7494 52.8804C73.0453 54.0685 70.1229 54.6787 67.1694 54.672C64.2158 54.6653 61.2962 54.0418 58.5976 52.8415C55.8989 51.6412 53.4807 49.8905 51.4978 47.7015C49.5149 45.5125 48.0111 42.9335 47.0826 40.1297C46.154 37.3259 45.8214 34.359 46.1058 31.4192H51.8044C51.596 33.5726 51.7884 36.2922 52.4685 38.3461C53.1487 40.3999 54.2502 42.289 55.7027 43.8924C57.1552 45.4959 58.9266 46.7783 60.9033 47.6576C62.8801 48.5368 65.0187 48.9935 67.1822 48.9984C69.3457 49.0033 71.4864 48.5563 73.4672 47.6861C75.4479 46.8158 77.2251 45.5414 78.6848 43.9446C80.1445 42.3477 81.2547 40.4636 81.9441 38.4129C82.6336 36.3622 82.8752 33.6694 82.6766 31.515H88.3382Z" fill="#2C7233"/>
<path d="M7.69155 75.062H8.08079C8.37488 75.062 8.63725 75.0158 8.8679 74.9236C9.09856 74.8313 9.29174 74.7044 9.44743 74.543C9.60889 74.3815 9.72998 74.1912 9.81071 73.9721C9.89721 73.7472 9.94046 73.5021 9.94046 73.2369C9.94046 72.9774 9.89721 72.7352 9.81071 72.5103C9.72422 72.2854 9.60024 72.0923 9.43878 71.9308C9.28309 71.7693 9.08991 71.6425 8.85925 71.5502C8.6286 71.4579 8.36911 71.4118 8.08079 71.4118H7.69155V75.062ZM5.99623 69.976H8.50462C8.94863 69.976 9.36382 70.0654 9.75017 70.2441C10.1423 70.4229 10.4825 70.6622 10.7708 70.962C11.0649 71.2561 11.2956 71.6021 11.4628 72C11.63 72.3921 11.7136 72.8044 11.7136 73.2369C11.7136 73.6636 11.63 74.0759 11.4628 74.4738C11.3013 74.8659 11.0736 75.2119 10.7795 75.5117C10.4912 75.8116 10.1509 76.0509 9.75882 76.2297C9.37247 76.4084 8.9544 76.4978 8.50462 76.4978H5.99623V69.976ZM16.5067 71.4118H14.4913V72.5017H16.3942V73.9375H14.4913V75.062H16.5067V76.4978H12.796V69.976H16.5067V71.4118ZM21.2753 74.0759L20.5141 71.9048L19.753 74.0759H21.2753ZM21.7251 75.3647H19.3032L18.914 76.4978H17.1062L19.5886 69.976H21.4397L23.9221 76.4978H22.1143L21.7251 75.3647ZM26.3592 69.976V75.062H28.3919V76.4978H24.6639V69.976H26.3592ZM32.3489 72.8477H35.7137C35.7137 73.1936 35.6992 73.5079 35.6704 73.7905C35.6416 74.073 35.5839 74.3354 35.4974 74.5776C35.3763 74.9178 35.212 75.2205 35.0044 75.4858C34.7968 75.7453 34.5517 75.9644 34.2692 76.1432C33.9924 76.3162 33.6868 76.4488 33.3523 76.5411C33.0179 76.6333 32.6661 76.6794 32.2971 76.6794C31.7896 76.6794 31.3254 76.5958 30.9045 76.4286C30.4893 76.2614 30.1318 76.0278 29.8319 75.728C29.5321 75.4224 29.2985 75.0591 29.1313 74.6381C28.9641 74.2114 28.8804 73.7415 28.8804 73.2282C28.8804 72.7208 28.9612 72.2566 29.1226 71.8356C29.2899 71.4089 29.5234 71.0456 29.8233 70.7458C30.1289 70.4459 30.495 70.2124 30.9218 70.0452C31.3485 69.8779 31.8242 69.7943 32.3489 69.7943C33.0294 69.7943 33.6262 69.9414 34.1394 70.2355C34.6526 70.5296 35.0592 70.9851 35.359 71.6021L33.7502 72.2681C33.6003 71.9106 33.4042 71.654 33.162 71.4983C32.9256 71.3426 32.6546 71.2648 32.3489 71.2648C32.0952 71.2648 31.8646 71.3138 31.657 71.4118C31.4494 71.5041 31.2706 71.6396 31.1207 71.8184C30.9765 71.9913 30.8612 72.2018 30.7747 72.4498C30.694 72.6977 30.6536 72.9745 30.6536 73.2801C30.6536 73.5569 30.6882 73.8135 30.7574 74.05C30.8324 74.2864 30.9419 74.4911 31.0861 74.6641C31.2303 74.8371 31.409 74.9726 31.6224 75.0706C31.8357 75.1629 32.0837 75.209 32.3662 75.209C32.5335 75.209 32.6949 75.1917 32.8506 75.1571C33.0063 75.1167 33.1447 75.0562 33.2658 74.9755C33.3927 74.889 33.4965 74.7794 33.5772 74.6468C33.6579 74.5142 33.7127 74.3527 33.7415 74.1624H32.3489V72.8477ZM38.2643 73.2369C38.2643 73.4964 38.3133 73.7357 38.4113 73.9548C38.5094 74.1739 38.642 74.3642 38.8092 74.5257C38.9764 74.6871 39.1696 74.814 39.3887 74.9063C39.6136 74.9928 39.85 75.036 40.098 75.036C40.346 75.036 40.5795 74.9928 40.7986 74.9063C41.0235 74.814 41.2196 74.6871 41.3868 74.5257C41.5598 74.3642 41.6953 74.1739 41.7933 73.9548C41.8914 73.7357 41.9404 73.4964 41.9404 73.2369C41.9404 72.9774 41.8914 72.7381 41.7933 72.519C41.6953 72.2998 41.5598 72.1096 41.3868 71.9481C41.2196 71.7866 41.0235 71.6627 40.7986 71.5762C40.5795 71.4839 40.346 71.4378 40.098 71.4378C39.85 71.4378 39.6136 71.4839 39.3887 71.5762C39.1696 71.6627 38.9764 71.7866 38.8092 71.9481C38.642 72.1096 38.5094 72.2998 38.4113 72.519C38.3133 72.7381 38.2643 72.9774 38.2643 73.2369ZM36.4911 73.2369C36.4911 72.7525 36.5805 72.3027 36.7592 71.8875C36.938 71.4666 37.186 71.1004 37.5031 70.789C37.8203 70.4777 38.198 70.2355 38.6362 70.0625C39.0802 69.8837 39.5675 69.7943 40.098 69.7943C40.6227 69.7943 41.1071 69.8837 41.5511 70.0625C41.9952 70.2355 42.3757 70.4777 42.6929 70.789C43.0158 71.1004 43.2667 71.4666 43.4454 71.8875C43.6242 72.3027 43.7136 72.7525 43.7136 73.2369C43.7136 73.7213 43.6242 74.1739 43.4454 74.5949C43.2667 75.0101 43.0158 75.3734 42.6929 75.6847C42.3757 75.9961 41.9952 76.2412 41.5511 76.42C41.1071 76.5929 40.6227 76.6794 40.098 76.6794C39.5675 76.6794 39.0802 76.5929 38.6362 76.42C38.198 76.2412 37.8203 75.9961 37.5031 75.6847C37.186 75.3734 36.938 75.0101 36.7592 74.5949C36.5805 74.1739 36.4911 73.7213 36.4911 73.2369ZM46.2635 73.2369C46.2635 73.4964 46.3125 73.7357 46.4105 73.9548C46.5086 74.1739 46.6412 74.3642 46.8084 74.5257C46.9757 74.6871 47.1688 74.814 47.388 74.9063C47.6128 74.9928 47.8493 75.036 48.0972 75.036C48.3452 75.036 48.5787 74.9928 48.7978 74.9063C49.0227 74.814 49.2188 74.6871 49.386 74.5257C49.559 74.3642 49.6945 74.1739 49.7926 73.9548C49.8906 73.7357 49.9396 73.4964 49.9396 73.2369C49.9396 72.9774 49.8906 72.7381 49.7926 72.519C49.6945 72.2998 49.559 72.1096 49.386 71.9481C49.2188 71.7866 49.0227 71.6627 48.7978 71.5762C48.5787 71.4839 48.3452 71.4378 48.0972 71.4378C47.8493 71.4378 47.6128 71.4839 47.388 71.5762C47.1688 71.6627 46.9757 71.7866 46.8084 71.9481C46.6412 72.1096 46.5086 72.2998 46.4105 72.519C46.3125 72.7381 46.2635 72.9774 46.2635 73.2369ZM44.4903 73.2369C44.4903 72.7525 44.5797 72.3027 44.7585 71.8875C44.9372 71.4666 45.1852 71.1004 45.5023 70.789C45.8195 70.4777 46.1972 70.2355 46.6354 70.0625C47.0795 69.8837 47.5667 69.7943 48.0972 69.7943C48.622 69.7943 49.1064 69.8837 49.5504 70.0625C49.9944 70.2355 50.375 70.4777 50.6921 70.789C51.015 71.1004 51.2659 71.4666 51.4446 71.8875C51.6234 72.3027 51.7128 72.7525 51.7128 73.2369C51.7128 73.7213 51.6234 74.1739 51.4446 74.5949C51.2659 75.0101 51.015 75.3734 50.6921 75.6847C50.375 75.9961 49.9944 76.2412 49.5504 76.42C49.1064 76.5929 48.622 76.6794 48.0972 76.6794C47.5667 76.6794 47.0795 76.5929 46.6354 76.42C46.1972 76.2412 45.8195 75.9961 45.5023 75.6847C45.1852 75.3734 44.9372 75.0101 44.7585 74.5949C44.5797 74.1739 44.4903 73.7213 44.4903 73.2369ZM54.4789 75.062H54.8682C55.1622 75.062 55.4246 75.0158 55.6553 74.9236C55.8859 74.8313 56.0791 74.7044 56.2348 74.543C56.3963 74.3815 56.5174 74.1912 56.5981 73.9721C56.6846 73.7472 56.7278 73.5021 56.7278 73.2369C56.7278 72.9774 56.6846 72.7352 56.5981 72.5103C56.5116 72.2854 56.3876 72.0923 56.2262 71.9308C56.0705 71.7693 55.8773 71.6425 55.6466 71.5502C55.416 71.4579 55.1565 71.4118 54.8682 71.4118H54.4789V75.062ZM52.7836 69.976H55.292C55.736 69.976 56.1512 70.0654 56.5375 70.2441C56.9297 70.4229 57.2699 70.6622 57.5582 70.962C57.8523 71.2561 58.0829 71.6021 58.2502 72C58.4174 72.3921 58.501 72.8044 58.501 73.2369C58.501 73.6636 58.4174 74.0759 58.2502 74.4738C58.0887 74.8659 57.8609 75.2119 57.5668 75.5117C57.2785 75.8116 56.9383 76.0509 56.5462 76.2297C56.1598 76.4084 55.7418 76.4978 55.292 76.4978H52.7836V69.976Z" fill="#1C5A07"/>
<path d="M65.95 74.0759L65.1888 71.9049L64.4276 74.0759H65.95ZM66.3997 75.3647H63.9778L63.5886 76.4978H61.7808L64.2633 69.976H66.1143L68.5967 76.4978H66.789L66.3997 75.3647ZM72.3018 72.8477H75.6665C75.6665 73.1936 75.652 73.5079 75.6232 73.7905C75.5944 74.073 75.5367 74.3354 75.4502 74.5776C75.3291 74.9178 75.1648 75.2205 74.9572 75.4858C74.7496 75.7453 74.5045 75.9644 74.222 76.1432C73.9452 76.3162 73.6396 76.4488 73.3051 76.5411C72.9707 76.6333 72.6189 76.6794 72.2499 76.6794C71.7424 76.6794 71.2782 76.5958 70.8573 76.4286C70.4421 76.2614 70.0846 76.0278 69.7847 75.728C69.4849 75.4224 69.2513 75.0591 69.0841 74.6381C68.9169 74.2114 68.8333 73.7415 68.8333 73.2282C68.8333 72.7208 68.914 72.2566 69.0754 71.8357C69.2427 71.4089 69.4762 71.0457 69.7761 70.7458C70.0817 70.446 70.4479 70.2124 70.8746 70.0452C71.3013 69.878 71.777 69.7943 72.3018 69.7943C72.9822 69.7943 73.579 69.9414 74.0922 70.2355C74.6054 70.5296 75.012 70.9851 75.3118 71.6021L73.703 72.2681C73.5531 71.9106 73.357 71.654 73.1148 71.4983C72.8784 71.3426 72.6074 71.2648 72.3018 71.2648C72.048 71.2648 71.8174 71.3138 71.6098 71.4118C71.4022 71.5041 71.2234 71.6396 71.0735 71.8184C70.9294 71.9913 70.814 72.2018 70.7275 72.4498C70.6468 72.6977 70.6064 72.9745 70.6064 73.2801C70.6064 73.5569 70.641 73.8135 70.7102 74.05C70.7852 74.2864 70.8948 74.4911 71.0389 74.6641C71.1831 74.8371 71.3618 74.9726 71.5752 75.0706C71.7885 75.1629 72.0365 75.209 72.3191 75.209C72.4863 75.209 72.6477 75.1917 72.8034 75.1571C72.9591 75.1167 73.0975 75.0562 73.2186 74.9755C73.3455 74.889 73.4493 74.7794 73.53 74.6468C73.6107 74.5142 73.6655 74.3527 73.6943 74.1624H72.3018V72.8477ZM78.4333 72.8909H78.7534C79.0878 72.8909 79.3444 72.8217 79.5232 72.6833C79.7019 72.5449 79.7913 72.346 79.7913 72.0865C79.7913 71.827 79.7019 71.6281 79.5232 71.4897C79.3444 71.3513 79.0878 71.2821 78.7534 71.2821H78.4333V72.8909ZM82.1613 76.4978H80.0508L78.4333 73.9894V76.4978H76.738V69.976H79.3761C79.7394 69.976 80.0566 70.0308 80.3276 70.1403C80.5986 70.2441 80.8206 70.3883 80.9936 70.5728C81.1724 70.7573 81.305 70.9707 81.3915 71.2129C81.4838 71.4551 81.5299 71.7146 81.5299 71.9913C81.5299 72.4873 81.4088 72.8909 81.1666 73.2023C80.9302 73.5079 80.5784 73.7155 80.1114 73.8251L82.1613 76.4978ZM84.5658 69.976V76.4978H82.8704V69.976H84.5658ZM85.2449 73.531H87.7274V74.8371H85.2449V73.531ZM90.9868 71.4118V76.4978H89.2915V71.4118H87.8989V69.976H92.3794V71.4118H90.9868ZM96.8441 71.4118H94.8287V72.5017H96.7316V73.9375H94.8287V75.062H96.8441V76.4978H93.1334V69.976H96.8441V71.4118ZM102.763 72.1557C102.371 71.6771 101.887 71.4378 101.31 71.4378C101.056 71.4378 100.82 71.4839 100.601 71.5762C100.387 71.6684 100.203 71.7953 100.047 71.9568C99.8915 72.1124 99.7675 72.2999 99.6753 72.519C99.5888 72.7381 99.5455 72.9745 99.5455 73.2282C99.5455 73.4877 99.5888 73.727 99.6753 73.9462C99.7675 74.1653 99.8915 74.3556 100.047 74.517C100.209 74.6785 100.396 74.8054 100.609 74.8976C100.823 74.9899 101.053 75.036 101.301 75.036C101.843 75.036 102.331 74.8054 102.763 74.344V76.3508L102.59 76.4113C102.331 76.5036 102.089 76.5699 101.864 76.6102C101.639 76.6564 101.417 76.6794 101.198 76.6794C100.748 76.6794 100.315 76.5958 99.9002 76.4286C99.4907 76.2556 99.1275 76.0163 98.8103 75.7107C98.4989 75.3993 98.2481 75.0331 98.0578 74.6122C97.8675 74.1855 97.7724 73.7213 97.7724 73.2196C97.7724 72.7179 97.8646 72.2595 98.0491 71.8443C98.2394 71.4234 98.4903 71.063 98.8017 70.7631C99.1188 70.4575 99.485 70.2211 99.9002 70.0538C100.315 69.8808 100.751 69.7943 101.206 69.7943C101.466 69.7943 101.719 69.8232 101.967 69.8808C102.221 69.9327 102.486 70.0164 102.763 70.1317V72.1557ZM105.81 72.493H108.258V69.976H109.953V76.4978H108.258V73.8078H105.81V76.4978H104.114V69.976H105.81V72.493Z" fill="#1C5A07"/>
<path d="M115.813 69.976V75.062H117.846V76.4978H114.118V69.976H115.813ZM120.849 71.4118V76.4978H119.154V71.4118H117.761V69.976H122.242V71.4118H120.849ZM124.691 75.062H125.08C125.374 75.062 125.637 75.0158 125.867 74.9236C126.098 74.8313 126.291 74.7044 126.447 74.543C126.608 74.3815 126.729 74.1912 126.81 73.9721C126.897 73.7472 126.94 73.5022 126.94 73.2369C126.94 72.9774 126.897 72.7352 126.81 72.5103C126.724 72.2854 126.6 72.0923 126.438 71.9308C126.283 71.7693 126.089 71.6425 125.859 71.5502C125.628 71.458 125.369 71.4118 125.08 71.4118H124.691V75.062ZM122.996 69.976H125.504C125.948 69.976 126.363 70.0654 126.75 70.2441C127.142 70.4229 127.482 70.6622 127.77 70.962C128.064 71.2561 128.295 71.6021 128.462 72C128.63 72.3921 128.713 72.8044 128.713 73.2369C128.713 73.6636 128.63 74.0759 128.462 74.4738C128.301 74.8659 128.073 75.2119 127.779 75.5117C127.491 75.8116 127.15 76.0509 126.758 76.2297C126.372 76.4084 125.954 76.4978 125.504 76.4978H122.996V69.976Z" fill="#1C5A07"/>
</svg>
