<svg width="419" height="502" viewBox="0 0 419 502" fill="none" xmlns="http://www.w3.org/2000/svg">
<path d="M191.929 152.402C189.577 150.338 187.259 148.256 185.002 146.032C178.393 126.437 165.726 109.609 149.719 99.1578C147.712 119.731 165.678 145.554 183.556 148.385C186.517 151.25 189.56 154.017 192.697 156.624C180.112 150.369 166.499 147.319 157.22 152.861C173.627 176.296 199.018 180.591 207.637 167.423C214.746 171.992 222.112 175.852 229.645 178.957C216.555 177.24 203.741 179.096 196.598 188.115C217.449 205.243 241.678 200.62 246.032 184.488C253.802 186.46 261.615 187.621 269.374 187.957C256.753 191.003 245.43 197.497 241.41 208.915C264.598 218.348 285.674 205.515 286.16 188.469C327.65 183.806 366.291 167.684 398.995 141.391C399.401 140.97 399.636 140.367 399.655 139.697C399.674 139.028 399.476 138.34 399.098 137.767C398.721 137.193 398.191 136.776 397.611 136.594C397.032 136.413 396.444 136.481 395.961 136.785C363.685 162.807 325.491 178.702 284.48 183.179C280.063 175.678 274.257 169.317 267.574 164.657C260.891 159.998 253.538 157.184 246.166 156.464C246.583 162.737 248.809 168.95 252.483 174.096C256.158 179.243 261.065 183.023 266.411 184.823C259.607 184.382 252.77 183.308 245.965 181.611C243.955 172.939 240.069 164.729 234.696 157.805C229.324 150.882 222.655 145.489 215.36 142.17C214.12 147.987 214.666 154.389 216.911 160.354C219.157 166.32 222.972 171.504 227.748 175.08C221.151 172.19 214.696 168.705 208.449 164.66C208.752 156.036 207.062 147.16 203.549 138.927C200.036 130.695 194.824 123.398 188.44 117.773C185.661 122.659 184.495 128.711 185.127 134.978C185.758 141.245 188.151 147.373 191.929 152.402Z" fill="#FFEBBD"/>
<path d="M208.871 349.531C206.519 351.594 204.201 353.677 201.944 355.9C195.335 375.496 182.668 392.324 166.661 402.775C164.655 382.202 182.62 356.378 200.499 353.548C203.459 350.682 206.502 347.916 209.64 345.309C197.055 351.563 183.441 354.613 174.163 349.072C190.57 325.636 215.961 321.342 224.579 334.509C231.688 329.941 239.054 326.08 246.588 322.976C233.497 324.692 220.684 322.836 213.541 313.817C234.392 296.689 258.621 301.312 262.975 317.444C270.744 315.472 278.557 314.311 286.316 313.975C273.696 310.929 262.373 304.436 258.352 293.018C281.541 283.584 302.616 296.417 303.103 313.464C344.592 318.126 383.233 334.248 415.937 360.541C416.343 360.962 416.579 361.566 416.598 362.235C416.617 362.905 416.418 363.593 416.041 364.166C415.663 364.739 415.133 365.157 414.554 365.338C413.974 365.519 413.386 365.452 412.903 365.147C380.628 339.126 342.434 323.231 301.422 318.753C297.006 326.254 291.199 332.615 284.516 337.275C277.834 341.935 270.481 344.749 263.108 345.468C263.525 339.196 265.751 332.983 269.426 327.836C273.1 322.689 278.008 318.909 283.354 317.109C276.549 317.55 269.712 318.624 262.908 320.322C260.898 328.993 257.011 337.204 251.639 344.127C246.266 351.051 239.597 356.443 232.303 359.762C231.062 353.946 231.608 347.544 233.854 341.578C236.099 335.613 239.914 330.428 244.69 326.852C238.093 329.743 231.639 333.228 225.391 337.272C225.695 345.896 224.005 354.773 220.492 363.005C216.979 371.238 211.767 378.535 205.382 384.16C202.603 379.273 201.438 373.222 202.069 366.955C202.701 360.688 205.093 354.559 208.871 349.531Z" fill="#FFEBBD"/>
<path d="M79.3824 220.168C76.1085 217.287 72.8821 214.38 69.7399 211.277C60.5109 183.96 42.8681 160.484 20.5964 145.885C17.8523 174.542 42.8798 210.564 67.7357 214.551C71.8574 218.55 76.0925 222.412 80.4593 226.052C62.9532 217.307 44.0244 213.025 31.1405 220.723C53.9963 253.413 89.2978 259.458 101.248 241.134C111.139 247.516 121.386 252.912 131.864 257.256C113.665 254.833 95.8589 257.388 85.9501 269.935C114.97 293.85 148.637 287.468 154.653 265.003C165.457 267.769 176.319 269.406 187.104 269.892C169.569 274.105 153.845 283.125 148.282 299.023C180.533 312.222 209.799 294.394 210.437 270.646C268.096 264.251 321.769 241.883 367.169 205.331C367.732 204.746 368.058 203.905 368.083 202.973C368.108 202.04 367.83 201.081 367.304 200.281C366.778 199.482 366.041 198.899 365.235 198.644C364.429 198.39 363.612 198.484 362.942 198.906C318.137 235.082 265.084 257.134 208.09 263.272C201.935 252.811 193.85 243.934 184.551 237.426C175.253 230.918 165.026 226.98 154.778 225.96C155.371 234.699 158.479 243.361 163.597 250.54C168.716 257.72 175.545 262.998 182.979 265.519C173.521 264.888 164.015 263.375 154.554 260.994C151.741 248.907 146.321 237.459 138.838 227.8C131.356 218.141 122.075 210.612 111.928 205.97C110.217 214.07 110.99 222.991 114.124 231.308C117.258 239.625 122.572 246.857 129.218 251.851C120.042 247.808 111.063 242.937 102.371 237.287C102.774 225.272 100.406 212.901 95.5046 201.423C90.6036 189.945 83.3435 179.766 74.4571 171.913C70.6047 178.715 68.9983 187.143 69.8897 195.876C70.781 204.609 74.1198 213.152 79.3824 220.168Z" fill="#FFDA83"/>
</svg>
