<svg width="236" height="380" viewBox="0 0 236 380" fill="none" xmlns="http://www.w3.org/2000/svg">
<path d="M-60.0263 113.517C-112.381 201.968 -77.014 303.971 13.0716 353.766C35.7853 366.322 53.8872 370.905 67.757 369.777C80.9847 368.701 91.5129 362.351 99.7088 349.948C108.19 337.114 114.145 317.728 116.673 291.366C119.187 265.144 118.24 232.804 113.596 194.715C109.504 161.148 119.847 135.734 136.11 116.113C152.024 96.9137 173.429 83.4956 190.938 73.0618C192.769 71.971 194.544 70.9201 196.264 69.9025C203.013 65.9084 208.896 62.4263 213.833 59.0537C220.252 54.668 223.345 51.568 224.482 49.4505C224.911 48.6529 224.895 48.292 224.879 48.1242C224.858 47.891 224.723 47.0741 223.626 45.566C221.208 42.2442 215.535 37.4624 204.052 31.1153C115.405 -17.8851 -6.82875 23.6427 -60.0263 113.517Z" stroke="#F4ECDE" stroke-width="20"/>
</svg>
