<svg width="279" height="339" viewBox="0 0 279 339" fill="none" xmlns="http://www.w3.org/2000/svg">
<path d="M151.2 235.42C152.766 236.81 154.31 238.213 155.813 239.71C160.213 252.908 168.648 264.243 179.307 271.282C180.643 257.425 168.68 240.032 156.775 238.126C154.804 236.196 152.778 234.332 150.689 232.576C159.069 236.789 168.133 238.843 174.311 235.111C163.387 219.326 146.479 216.434 140.741 225.303C136.007 222.226 131.102 219.626 126.086 217.535C134.802 218.69 143.335 217.44 148.091 211.366C134.207 199.83 118.073 202.943 115.174 213.809C110.001 212.481 104.798 211.699 99.6318 211.472C108.036 209.421 115.575 205.047 118.252 197.357C102.812 191.003 88.778 199.647 88.4542 211.128C60.8274 214.268 35.0975 225.127 13.3209 242.836C13.0506 243.12 12.8939 243.526 12.8812 243.977C12.8685 244.428 13.0007 244.891 13.2521 245.277C13.5035 245.663 13.8563 245.945 14.2422 246.067C14.6281 246.189 15.0197 246.143 15.3411 245.939C36.8325 228.412 62.2649 217.706 89.5731 214.691C92.514 219.742 96.3805 224.027 100.83 227.165C105.28 230.304 110.176 232.199 115.085 232.684C114.808 228.459 113.325 224.275 110.879 220.808C108.432 217.341 105.164 214.796 101.605 213.583C106.135 213.88 110.688 214.604 115.219 215.747C116.557 221.587 119.145 227.117 122.723 231.781C126.3 236.444 130.741 240.076 135.598 242.312C136.424 238.394 136.06 234.082 134.565 230.064C133.07 226.046 130.529 222.554 127.349 220.145C131.742 222.092 136.04 224.44 140.2 227.164C139.998 232.972 141.123 238.951 143.462 244.496C145.802 250.04 149.272 254.955 153.523 258.744C155.374 255.453 156.15 251.377 155.729 247.156C155.309 242.935 153.716 238.807 151.2 235.42Z" fill="#CDD8C7"/>
<path d="M139.918 102.647C141.485 101.257 143.028 99.8548 144.531 98.3572C148.932 85.159 157.366 73.8247 168.025 66.7858C169.361 80.6422 157.398 98.0353 145.494 99.9418C143.522 101.872 141.496 103.735 139.407 105.491C147.787 101.278 156.852 99.2242 163.03 102.956C152.105 118.741 135.198 121.633 129.459 112.765C124.726 115.842 119.82 118.442 114.804 120.533C123.521 119.377 132.053 120.627 136.81 126.701C122.925 138.238 106.792 135.124 103.893 124.259C98.7192 125.587 93.5167 126.369 88.3502 126.595C96.754 128.646 104.293 133.02 106.971 140.71C91.5301 147.064 77.4964 138.421 77.1727 126.94C49.5458 123.799 23.816 112.94 2.03931 95.2312C1.76904 94.9479 1.61239 94.5414 1.59968 94.0904C1.58697 93.6394 1.71911 93.1761 1.97053 92.79C2.22194 92.4039 2.57475 92.1226 2.96065 92.0004C3.34656 91.8783 3.73811 91.924 4.05952 92.1288C25.5509 109.655 50.9833 120.361 78.2915 123.377C81.2325 118.325 85.0989 114.04 89.5488 110.902C93.9986 107.764 98.8946 105.868 103.804 105.384C103.526 109.608 102.044 113.793 99.597 117.259C97.1503 120.726 93.8825 123.272 90.323 124.484C94.8537 124.187 99.4064 123.464 103.937 122.321C105.276 116.48 107.864 110.95 111.441 106.287C115.018 101.624 119.459 97.9915 124.316 95.7558C125.142 99.6735 124.779 103.986 123.283 108.004C121.788 112.022 119.248 115.514 116.068 117.922C120.461 115.975 124.758 113.628 128.919 110.904C128.716 105.095 129.842 99.1166 132.181 93.5718C134.52 88.027 137.991 83.1122 142.242 79.3234C144.092 82.6149 144.868 86.6906 144.448 90.9116C144.027 95.1326 142.434 99.2603 139.918 102.647Z" fill="#769A75" fill-opacity="0.36"/>
<path d="M226.141 189.777C228.321 191.718 230.47 193.676 232.562 195.766C238.707 214.165 250.455 229.976 265.285 239.809C267.113 220.508 250.448 196.246 233.897 193.56C231.152 190.867 228.332 188.266 225.424 185.814C237.081 191.704 249.685 194.588 258.264 189.404C243.045 167.385 219.539 163.314 211.582 175.656C204.996 171.357 198.172 167.723 191.196 164.797C203.314 166.429 215.17 164.708 221.768 156.257C202.445 140.15 180.027 144.449 176.021 159.58C168.827 157.716 161.594 156.614 154.413 156.286C166.089 153.449 176.559 147.374 180.264 136.666C158.788 127.776 139.301 139.784 138.876 155.779C100.483 160.086 64.7432 175.151 34.513 199.771C34.138 200.165 33.9211 200.731 33.9044 201.359C33.8877 201.987 34.0724 202.633 34.4227 203.172C34.773 203.71 35.264 204.103 35.8006 204.274C36.3373 204.445 36.8814 204.382 37.3277 204.098C67.1617 179.732 102.488 164.88 140.439 160.745C144.537 167.791 149.921 173.77 156.113 178.153C162.304 182.536 169.114 185.189 175.938 185.876C175.543 179.99 173.474 174.156 170.065 169.32C166.657 164.485 162.109 160.93 157.159 159.232C163.457 159.657 169.787 160.676 176.087 162.28C177.96 170.42 181.569 178.131 186.552 184.637C191.534 191.142 197.714 196.214 204.47 199.34C205.61 193.884 205.095 187.876 203.008 182.274C200.921 176.672 197.383 171.801 192.957 168.438C199.067 171.161 205.046 174.442 210.834 178.247C210.566 186.34 212.143 194.672 215.406 202.402C218.67 210.133 223.504 216.989 229.421 222.278C231.986 217.697 233.056 212.021 232.462 206.139C231.869 200.257 229.646 194.502 226.141 189.777Z" fill="#FFDA83"/>
</svg>
