<svg width="238" height="1052" viewBox="0 0 238 1052" fill="none" xmlns="http://www.w3.org/2000/svg">
<path d="M107.643 336.141C108.394 320.518 108.957 304.956 108.79 289.132C60.4859 198.02 43.6507 94.3328 61.8965 0.315282C144.147 63.4185 175.172 217.174 122.484 291.923C122.515 312.503 121.898 333.044 120.363 353.385C141.877 286.181 178.728 226.201 231.688 211.401C259.482 351.31 185.656 458.41 107.154 444.709C98.7854 486.216 86.9208 526.235 71.7057 564.274C111.586 510.762 163.545 470.483 221.684 475.352C210.76 609.852 108.444 682.204 34.1463 642.84C13.9594 677.864 -9.34364 710.27 -35.4727 739.655C20.1537 704.151 83.8016 685.168 139.7 709.612C92.4193 826.284 -28.7806 859.063 -92.7851 802.495C-256.1 937.527 -451.245 1022.97 -662.626 1052.01C-665.594 1052.05 -668.629 1050.84 -671.143 1048.62C-673.657 1046.39 -675.471 1043.32 -676.235 1039.98C-676.998 1036.65 -676.656 1033.29 -675.276 1030.56C-673.895 1027.83 -671.574 1025.92 -668.761 1025.2C-459.882 996.801 -267.141 912.202 -106.19 778.277C-118.027 736.536 -120.801 693.634 -114.267 653.368C-107.733 613.102 -92.093 576.713 -68.73 547.421C-47.2803 570.405 -32.4256 599.768 -26.5724 630.754C-20.7191 661.74 -24.2101 692.534 -36.4799 718.148C-14.1007 691.878 6.07939 663.321 23.8665 632.75C-0.734486 595.758 -17.0338 553.515 -23.3923 510.27C-29.7508 467.025 -25.9444 424.301 -12.3558 386.395C13.2722 401.787 34.742 425.684 48.6246 454.271C62.5071 482.858 68.0018 514.486 64.2309 544.103C76.9269 510.202 86.9484 474.787 94.1955 438.21C61.6103 409.801 35.1328 373.274 17.4358 332.316C-0.261096 291.357 -8.55099 247.418 -6.5971 204.932C21.059 211.542 47.2796 228.011 67.954 251.756C88.6284 275.501 102.588 305.181 107.643 336.141Z" fill="#FFF3D7"/>
</svg>
