<svg width="290" height="572" viewBox="0 0 290 572" fill="none" xmlns="http://www.w3.org/2000/svg">
<g clip-path="url(#clip0_34_18)">
<path d="M35.8863 315.236L175.589 -110.589C176.075 -112.072 177.997 -112.451 179.01 -111.264L481.755 243.26C482.769 244.447 482.093 246.285 480.553 246.533L38.1049 317.834C36.6257 318.073 35.4193 316.66 35.8863 315.236Z" fill="#FFFCF5" stroke="#FCF6EB" stroke-width="20"/>
<path d="M99.6247 387.053L115.221 344.617C116.833 340.231 122.618 339.29 125.537 342.937L154.762 379.45C157.682 383.098 155.496 388.536 150.864 389.148L106.042 395.071C101.569 395.662 98.0679 391.289 99.6247 387.053Z" fill="#FFFCF5" stroke="#FCF6EB" stroke-width="12"/>
<path d="M152.629 251.896L182.861 164.812C184.409 160.353 190.263 159.345 193.213 163.031L254.573 239.691C257.523 243.377 255.257 248.868 250.567 249.402L158.976 259.826C154.586 260.325 151.18 256.07 152.629 251.896Z" fill="#FFFCF5" stroke="#FCF6EB" stroke-width="12"/>
<path d="M172.398 530.246L180.262 513.421C182.459 508.721 188.826 507.96 192.068 512.011L202.343 524.848C205.585 528.898 203.448 534.945 198.381 536.059L180.242 540.047C174.576 541.292 169.941 535.501 172.398 530.246Z" fill="#FFFCF5" stroke="#FCF6EB" stroke-width="10"/>
<path d="M215.013 419.837L260.497 279.48C261.969 274.935 267.904 273.85 270.889 277.58L372.316 404.3C375.301 408.03 372.943 413.582 368.187 414.024L221.275 427.661C216.983 428.059 213.684 423.937 215.013 419.837Z" fill="#FFFCF5" stroke="#FCF6EB" stroke-width="12"/>
</g>
<defs>
<clipPath id="clip0_34_18">
<rect width="290" height="572" fill="white"/>
</clipPath>
</defs>
</svg>
