<svg width="255" height="792" viewBox="0 0 255 792" fill="none" xmlns="http://www.w3.org/2000/svg">
<path d="M1.39659 683.675C7.64608 749.233 61.9303 802.978 126.326 789.195C169.14 780.031 210.228 764.345 248.68 742.352C320.286 701.395 380.953 639.595 426.27 561.444C471.588 483.293 500.416 390.756 510.66 290.561C517.656 222.127 515.863 151.296 505.478 80.5077C497.33 24.9611 442.248 -8.56774 387.34 3.1358C328.814 15.6107 293.657 74.5876 297.178 134.325C298.822 162.225 298.276 189.912 295.508 216.993C289.164 279.045 271.31 336.354 243.245 384.753C215.179 433.153 177.608 471.426 133.261 496.791C63.4679 536.711 -6.23357 603.635 1.39659 683.675Z" fill="#F9F0DC" fill-opacity="0.43"/>
</svg>
