<svg width="232" height="351" viewBox="0 0 232 351" fill="none" xmlns="http://www.w3.org/2000/svg">
<path d="M9.88081 261.324C2.73979 275.487 8.11806 292.738 23.281 296.089C44.6196 300.804 67.2119 299.541 88.6125 292.159C119.088 281.647 144.716 259.563 159.995 230.65C175.273 201.737 178.983 168.3 170.329 137.519C164.308 116.107 152.639 97.168 136.789 82.5569C125.288 71.9538 107.309 77.5814 99.487 91.7214C91.8111 105.598 97.2595 122.466 106.267 134.909C110.613 140.912 113.923 147.72 115.99 155.073C120.629 171.57 118.641 189.491 110.452 204.988C102.263 220.484 88.5271 232.32 72.1933 237.955C65.211 240.363 57.992 241.556 50.8319 241.551C34.9067 241.54 17.1496 246.907 9.88081 261.324Z" fill="#F9F0DC" fill-opacity="0.43"/>
<path d="M-22.1447 136.331C-25.3031 133.819 -29.9882 134.308 -32.1979 137.655C-41.8418 152.262 -46.3003 169.908 -44.8297 188.12C-43.1553 208.857 -33.9056 228.944 -18.7694 244.714C-3.63317 260.484 16.3799 270.885 37.6159 274.018C56.2372 276.765 74.7096 273.763 90.4428 265.546C94.0715 263.651 94.9245 259.066 92.5395 255.793C90.2645 252.671 85.8801 251.915 82.3994 253.687C69.2938 260.359 53.9875 262.772 38.5598 260.496C20.6857 257.859 3.84101 249.105 -8.89895 235.831C-21.6389 222.558 -29.4243 205.651 -30.8336 188.197C-32.0453 173.191 -28.4747 158.642 -20.709 146.502C-18.5956 143.198 -19.055 138.789 -22.1447 136.331Z" fill="#98701C" fill-opacity="0.25"/>
<path d="M24.4296 126.716C21.6411 122.962 16.3956 121.816 12.6823 124.519C5.6341 129.649 -0.347322 135.802 -4.92497 142.666C-10.914 151.646 -14.3123 161.561 -14.8144 171.52C-15.3165 181.478 -12.9065 191.167 -7.80133 199.716C-4.04432 206.007 1.08568 211.535 7.31478 216.045C11.2453 218.891 16.5767 217.806 19.5135 214.124C23.2632 209.423 21.5607 202.477 17.1332 198.164C14.7641 195.856 12.7274 193.293 11.0707 190.519C7.48322 184.512 5.78973 177.703 6.14255 170.705C6.49537 163.707 8.88342 156.74 13.0919 150.43C15.6258 146.63 18.7718 143.141 22.4141 140.068C26.3538 136.745 27.5646 130.936 24.4296 126.716Z" fill="#F4EBD7"/>
<path d="M100.298 174.385C103.015 174.041 105.078 171.763 104.873 169.092C104.349 162.235 102.718 155.632 100.033 149.539C96.7416 142.068 91.9303 135.51 85.8741 130.239C79.8179 124.968 72.6355 121.087 64.737 118.819C58.3355 116.981 51.5653 116.231 44.6834 116.587C41.9115 116.731 39.8461 119.062 39.8544 121.778C39.8643 124.999 42.7545 127.446 46.0451 127.407C51.0453 127.347 55.9538 127.994 60.6265 129.336C67.2105 131.226 73.1975 134.461 78.2457 138.854C83.2939 143.248 87.3045 148.715 90.0484 154.943C92.017 159.411 93.306 164.208 93.8853 169.189C94.2523 172.345 97.0754 174.792 100.298 174.385Z" fill="#FFF0D0"/>
</svg>
