<svg width="713" height="601" viewBox="0 0 713 601" fill="none" xmlns="http://www.w3.org/2000/svg">
<g clip-path="url(#clip0_34_19)">
<path d="M392.372 33.8597C394.554 20.4784 385.228 7.85503 371.689 7.14033C309.57 3.86118 247.006 18.6763 191.564 50.0826C128.77 85.6537 78.5665 140.551 48.6254 206.385C18.6843 272.219 10.6529 345.368 25.7586 414.653C39.1147 475.912 69.9092 531.172 114.19 573.922C123.824 583.224 139.183 581.688 147.703 571.356V571.356C156.224 561.022 154.662 545.811 145.152 536.379C108.702 500.23 83.3267 453.995 72.179 402.864C59.2805 343.704 66.1384 281.243 91.7045 225.029C117.271 168.815 160.139 121.939 213.757 91.5655C260.469 65.104 313.103 52.4361 365.45 54.7946C378.407 55.3783 390.285 46.6606 392.372 33.8597V33.8597Z" fill="#F9F0DC" fill-opacity="0.43"/>
<path d="M154.353 272.392C144.591 271.047 135.461 277.671 134.301 287.457C128.111 339.675 134.757 392.174 153.659 440.451C157.441 450.109 168.708 454.122 178.061 449.639V449.639C187.242 445.239 191.118 434.296 187.462 424.794C171.52 383.361 165.711 338.483 170.498 293.75C171.601 283.449 164.616 273.805 154.353 272.392V272.392Z" fill="#F9F0DC" fill-opacity="0.43"/>
<path d="M681.683 333.63C699.363 327.38 709.073 308.12 701.526 290.952C686.819 257.494 666.446 226.917 641.214 200.581C608.264 166.19 567.856 139.893 522.927 123.603C477.998 107.313 429.678 101.438 381.479 106.406C344.189 110.25 307.698 120.509 273.582 136.655C256.882 144.558 251.588 165.151 260.727 181.208V181.208C270.165 197.793 291.342 203.142 308.844 195.54C333.477 184.842 359.543 177.969 386.122 175.23C424.132 171.312 462.238 175.944 497.67 188.791C533.101 201.638 564.967 222.375 590.951 249.496C608.704 268.026 623.407 289.217 634.608 312.309C643.167 329.955 663.191 340.166 681.683 333.63V333.63Z" fill="#F9F0DC" fill-opacity="0.43"/>
</g>
<defs>
<clipPath id="clip0_34_19">
<rect width="713" height="601" fill="white"/>
</clipPath>
</defs>
</svg>
