<svg width="2240" height="1736" viewBox="0 0 2240 1736" fill="none" xmlns="http://www.w3.org/2000/svg">
<ellipse cx="886.138" cy="425" rx="201.639" ry="189" fill="#FBF3E2"/>
<ellipse cx="1730.29" cy="1077.5" rx="509.712" ry="508.5" fill="#98701C" fill-opacity="0.09"/>
<path d="M505.368 722.057L854.237 729.568C886.17 730.256 914.915 748.795 928.963 777.762L1065.46 1059.22C1079.51 1088.19 1076.56 1122.85 1057.8 1149.32L852.825 1438.53C835.998 1462.27 808.76 1476.12 780.12 1475.51L431.25 1468C399.318 1467.31 370.572 1448.77 356.524 1419.8L220.028 1138.34C205.981 1109.37 208.927 1074.72 227.689 1048.24L432.662 759.036C449.489 735.294 476.728 721.44 505.368 722.057Z" stroke="#E1D0AC" stroke-opacity="0.43" stroke-width="66"/>
<path d="M1554.18 219.934L1739.84 183.897C1775.55 176.966 1812.01 190.607 1834.79 219.425L1939.06 351.319C1961.85 380.138 1967.29 419.494 1953.24 453.823L1880.19 632.302C1867.3 663.809 1839.78 686.623 1807.01 692.985L1621.35 729.021C1585.63 735.953 1549.18 722.312 1526.4 693.493L1422.12 561.599C1399.34 532.781 1393.89 493.425 1407.94 459.095L1480.99 280.616C1493.89 249.109 1521.4 226.295 1554.18 219.934Z" stroke="#E7DABE" stroke-opacity="0.3" stroke-width="40"/>
</svg>
