<svg width="975" height="1077" viewBox="0 0 975 1077" fill="none" xmlns="http://www.w3.org/2000/svg">
<g clip-path="url(#clip0_21_211)">
<g clip-path="url(#clip1_21_211)">
<path d="M-136.753 867.993C-136.946 868.167 -136.955 868.46 -136.772 868.646L-39.6756 967.428C50.7496 1059.42 201.718 1063.97 297.521 977.595V977.595C297.901 977.252 297.918 976.678 297.56 976.313L199.268 876.315C109.679 785.171 -39.8941 780.661 -134.812 866.243L-136.753 867.993Z" fill="#D0C5AF"/>
<path d="M43.7264 917.055C-4.14305 891.485 -90.1171 880.928 -127.12 878.846C-144.079 869.739 -136.017 863.04 -114.847 850.476C-76.9148 855.074 4.79046 869.815 28.1533 892.003C51.5162 914.191 97.2795 929.724 117.241 934.717C112.682 939.484 91.5958 942.625 43.7264 917.055Z" fill="white"/>
</g>
<g clip-path="url(#clip2_21_211)">
<path d="M-429.998 884.859C-429.998 885.791 -429.242 886.547 -428.309 886.547H104.049C544.432 886.547 901.432 529.547 901.431 89.1643V89.1643C901.431 87.4168 900.014 86 898.267 86H360.014C-76.298 86 -429.999 439.701 -429.998 876.014L-429.998 884.859Z" fill="#EBE7DF"/>
<path d="M120.189 554.986C-58.3605 611.701 -287.16 800.28 -379.242 887.48C-442.622 907.453 -441.141 870.916 -424.193 787.302C-323.403 703.952 -93.7306 536.282 18.631 532.406C130.992 528.53 278.534 452.459 338.26 414.908C339.965 437.969 298.738 498.271 120.189 554.986Z" fill="white"/>
</g>
</g>
<defs>
<clipPath id="clip0_21_211">
<rect width="975" height="1077" fill="white"/>
</clipPath>
<clipPath id="clip1_21_211">
<path d="M-136.753 867.993C-136.946 868.167 -136.955 868.46 -136.772 868.646L-39.6756 967.428C50.7496 1059.42 201.718 1063.97 297.521 977.595V977.595C297.901 977.252 297.918 976.678 297.56 976.313L199.268 876.315C109.679 785.171 -39.8941 780.661 -134.812 866.243L-136.753 867.993Z" fill="white"/>
</clipPath>
<clipPath id="clip2_21_211">
<path d="M-429.998 884.859C-429.998 885.791 -429.242 886.547 -428.309 886.547H104.049C544.432 886.547 901.432 529.547 901.431 89.1643V89.1643C901.431 87.4168 900.014 86 898.267 86H360.014C-76.298 86 -429.999 439.701 -429.998 876.014L-429.998 884.859Z" fill="white"/>
</clipPath>
</defs>
</svg>
