<svg width="1728" height="1295" viewBox="0 0 1728 1295" fill="none" xmlns="http://www.w3.org/2000/svg">
<g clip-path="url(#clip0_31_286)">
<rect width="1728" height="1295" fill="#624C23"/>
<path d="M1714.07 -451.25C1749.89 -492.25 1810.11 -492.25 1845.93 -451.25L2242.14 2.34275C2275.29 40.2922 2275.29 99.7077 2242.14 137.657L1845.93 591.25C1810.11 632.25 1749.89 632.25 1714.07 591.25L1317.86 137.657C1284.71 99.7077 1284.71 40.2923 1317.86 2.34279L1714.07 -451.25Z" fill="#3E321A"/>
<path d="M778.251 927.012C808.807 893.663 860.193 893.662 890.749 927.012L1228.79 1295.97C1257.07 1326.84 1257.07 1375.16 1228.79 1406.03L890.749 1774.99C860.193 1808.34 808.807 1808.34 778.251 1774.99L440.211 1406.03C411.93 1375.16 411.93 1326.84 440.211 1295.97L778.251 927.012Z" fill="#3F3219"/>
<path d="M1464.75 554.876C1500.19 520.375 1559.81 520.375 1595.25 554.876L1987.39 936.567C2020.2 968.501 2020.2 1018.5 1987.39 1050.43L1595.25 1432.12C1559.81 1466.63 1500.19 1466.63 1464.75 1432.12L1072.61 1050.43C1039.8 1018.5 1039.8 968.501 1072.61 936.567L1464.75 554.876Z" fill="#463615"/>
<path d="M-133.89 1.14433C-78.2704 -57.6018 15.2685 -57.6019 70.8883 1.14423L686.217 651.06C737.698 705.434 737.698 790.566 686.217 844.94L70.8884 1494.86C15.2685 1553.6 -78.2703 1553.6 -133.89 1494.86L-749.219 844.94C-800.7 790.566 -800.7 705.434 -749.219 651.06L-133.89 1.14433Z" fill="#3C2B08"/>
</g>
<defs>
<clipPath id="clip0_31_286">
<rect width="1728" height="1295" fill="white"/>
</clipPath>
</defs>
</svg>
