<svg width="1728" height="2740" viewBox="0 0 1728 2740" fill="none" xmlns="http://www.w3.org/2000/svg">
<path d="M58.9411 182.848C-195.122 372.64 -285.796 693.974 -232.858 1069.98C-179.932 1445.91 16.4574 1874.09 332.925 2272.65C491.31 2472.12 632.403 2603.19 754.935 2670.56C876.947 2737.65 978.327 2740.63 1061.26 2688.31C1145.75 2635 1215.02 2522.05 1265.57 2347.92C1315.95 2174.32 1346.98 1942.52 1357.17 1655.18C1361.3 1538.63 1387.73 1450.23 1430.56 1383.78C1473.48 1317.19 1532.23 1273.61 1599.19 1245.78C1732.09 1190.54 1898.12 1197.19 2039.21 1206.98C2053.47 1207.97 2067.46 1208.99 2081.14 1209.99C2135.88 1213.99 2185.67 1217.62 2227.9 1217.41C2254.2 1217.27 2276.83 1215.63 2295.34 1211.86C2313.96 1208.06 2327.21 1202.34 2335.87 1194.92C2351.14 1181.85 2357.97 1157.7 2337.08 1106.56C2316.37 1055.86 2270.4 984.352 2191.13 884.522C1875.17 486.606 1469.25 215.305 1078.4 91.683C687.226 -32.0444 313.482 -7.30146 58.9411 182.848Z" fill="white" stroke="#F4EFE6" stroke-width="30"/>
</svg>
